<svg width="41" height="38" viewBox="0 0 41 38" fill="none" xmlns="http://www.w3.org/2000/svg">
<rect width="41" height="38" fill="#F5F5F5"/>
<g id="Desktop - 1" clip-path="url(#clip0_0_1)">
<rect width="1440" height="1024" transform="translate(-645 -430)" fill="#F0F0F0"/>
<g id="iPhone 14 Pro - 2" filter="url(#filter0_d_0_1)">
<rect x="-122" y="-407" width="393" height="852" rx="20" fill="#F0F0F0"/>
<g id="Rectangle 2" filter="url(#filter1_d_0_1)">
<rect x="-76" y="-87" width="300" height="212" rx="10" fill="white"/>
</g>
<g id="Button group">
<g id="Button group_2">
<g id="Button">
<rect x="-37" y="-1" width="222" height="40" rx="5" fill="black"/>
<path id="GitHub" d="M20.5013 0.00121747C9.45181 0.00121747 0.5 8.72697 0.5 19.4811C0.5 28.0924 6.23036 35.3912 14.1721 37.9662C15.1759 38.1501 15.5384 37.5474 15.5384 37.0263C15.5384 36.5637 15.5272 35.3401 15.5197 33.716C9.95309 34.8896 8.78052 31.0971 8.78052 31.0971C7.86921 28.8521 6.55413 28.2494 6.55413 28.2494C4.74402 27.0453 6.69789 27.0709 6.69789 27.0709C8.70301 27.2036 9.75808 29.0737 9.75808 29.0737C11.5419 32.0541 14.4384 31.1921 15.5847 30.6905C15.7597 29.4353 16.281 28.5721 16.8485 28.0912C12.4082 27.6029 7.7392 25.9289 7.7392 18.4645C7.7392 16.3326 8.51425 14.5965 9.79558 13.2329C9.57432 12.7447 8.89678 10.7602 9.97184 8.07683C9.97184 8.07683 11.6457 7.55696 15.4722 10.0747C17.0735 9.64253 18.7736 9.42703 20.4725 9.41607C22.1726 9.42703 23.8715 9.64374 25.4728 10.0747C29.2768 7.55696 30.9494 8.07683 30.9494 8.07683C32.0232 10.7602 31.3457 12.7435 31.1507 13.2329C32.4195 14.5965 33.1945 16.3339 33.1945 18.4645C33.1945 25.9459 28.5193 27.5956 24.074 28.0717C24.769 28.6549 25.4203 29.8541 25.4203 31.6742C25.4203 34.2797 25.3953 36.3786 25.3953 37.0129C25.3953 37.5194 25.7453 38.1282 26.7754 37.9321C34.7759 35.3839 40.5 28.079 40.5 19.4799C40.5 8.72576 31.5482 0 20.4988 0L20.5013 0.00121747Z" fill="white"/>
</g>
</g>
</g>
</g>
</g>
<defs>
<filter id="filter0_d_0_1" x="-152" y="-437" width="453" height="912" filterUnits="userSpaceOnUse" color-interpolation-filters="sRGB">
<feFlood flood-opacity="0" result="BackgroundImageFix"/>
<feColorMatrix in="SourceAlpha" type="matrix" values="0 0 0 0 0 0 0 0 0 0 0 0 0 0 0 0 0 0 127 0" result="hardAlpha"/>
<feOffset/>
<feGaussianBlur stdDeviation="15"/>
<feComposite in2="hardAlpha" operator="out"/>
<feColorMatrix type="matrix" values="0 0 0 0 0.5375 0 0 0 0 0.53526 0 0 0 0 0.53526 0 0 0 0.25 0"/>
<feBlend mode="normal" in2="BackgroundImageFix" result="effect1_dropShadow_0_1"/>
<feBlend mode="normal" in="SourceGraphic" in2="effect1_dropShadow_0_1" result="shape"/>
</filter>
<filter id="filter1_d_0_1" x="-106" y="-113" width="360" height="272" filterUnits="userSpaceOnUse" color-interpolation-filters="sRGB">
<feFlood flood-opacity="0" result="BackgroundImageFix"/>
<feColorMatrix in="SourceAlpha" type="matrix" values="0 0 0 0 0 0 0 0 0 0 0 0 0 0 0 0 0 0 127 0" result="hardAlpha"/>
<feOffset dy="4"/>
<feGaussianBlur stdDeviation="15"/>
<feComposite in2="hardAlpha" operator="out"/>
<feColorMatrix type="matrix" values="0 0 0 0 0 0 0 0 0 0 0 0 0 0 0 0 0 0 0.2 0"/>
<feBlend mode="normal" in2="BackgroundImageFix" result="effect1_dropShadow_0_1"/>
<feBlend mode="normal" in="SourceGraphic" in2="effect1_dropShadow_0_1" result="shape"/>
</filter>
<clipPath id="clip0_0_1">
<rect width="1440" height="1024" fill="white" transform="translate(-645 -430)"/>
</clipPath>
</defs>
</svg>
