<svg width="21" height="20" viewBox="0 0 21 20" fill="none" xmlns="http://www.w3.org/2000/svg">
<path d="M13.4029 0H7.26375C1.66142 0 0.333336 1.32808 0.333336 6.93041V13.0696C0.333336 18.6719 1.66142 20 7.26375 20H13.4029C19.0053 20 20.3333 18.6719 20.3333 13.0696V6.93041C20.3333 1.32808 18.9921 0 13.4029 0ZM16.4791 14.2671H15.0273C14.4773 14.2671 14.3079 13.8308 13.3186 12.8283C12.4592 11.9953 12.0786 11.8846 11.8667 11.8846C11.5674 11.8846 11.4824 11.969 11.4824 12.3796V13.6914C11.4824 14.0433 11.3717 14.2546 10.4405 14.2546C8.90057 14.2546 7.19187 13.3233 5.99378 11.5884C4.18697 9.04597 3.69261 7.14165 3.69261 6.74791C3.69261 6.53605 3.77698 6.33793 4.18384 6.33793H5.6388C6.00691 6.33793 6.1469 6.5073 6.29003 6.90103C7.00938 8.97784 8.20747 10.7972 8.70183 10.7972C8.88432 10.7972 8.96869 10.7128 8.96869 10.2472V8.10225C8.91307 7.1129 8.39246 7.02791 8.39246 6.67667C8.39246 6.5073 8.53246 6.33793 8.75682 6.33793H11.0449C11.3542 6.33793 11.468 6.5073 11.468 6.87166V9.76532C11.468 10.0778 11.608 10.1884 11.6924 10.1884C11.8749 10.1884 12.0311 10.0778 12.3692 9.73907C13.4142 8.56723 14.1629 6.76041 14.1629 6.76041C14.2604 6.54855 14.4298 6.35043 14.7979 6.35043H16.2528C16.6891 6.35043 16.7866 6.5748 16.6891 6.88729C16.5066 7.73351 14.726 10.2466 14.726 10.2466C14.5729 10.5003 14.5141 10.6109 14.726 10.894C14.8823 11.1059 15.3904 11.5453 15.7285 11.939C16.3503 12.6452 16.8284 13.2377 16.9559 13.6477C17.0991 14.0546 16.8878 14.2664 16.4772 14.2664L16.4791 14.2671Z" fill="white"/>
</svg>
