<svg width="36" height="22" viewBox="0 0 36 22" fill="none" xmlns="http://www.w3.org/2000/svg">
<path d="M34.436 3.73903C34.0203 2.4718 32.8693 1.47793 31.3868 1.1266C28.6571 0.50003 17.6834 0.50003 17.6834 0.50003C17.6834 0.50003 6.7305 0.485 3.97231 1.1266C2.49748 1.47887 1.34103 2.4718 0.929657 3.73903C0.412154 6.14104 0.155044 8.57217 0.167079 11.0146C0.161609 13.441 0.417625 15.8684 0.929657 18.2554C1.34103 19.5226 2.49748 20.5165 3.97231 20.8734C6.70205 21.5 17.6834 21.5 17.6834 21.5C17.6834 21.5 28.6297 21.5 31.3868 20.8734C32.8693 20.5165 34.0203 19.5235 34.436 18.2554C34.9382 15.8684 35.1833 13.441 35.1658 11.0146C35.1833 8.57217 34.9437 6.14104 34.436 3.73903ZM14.1779 15.5114V6.49801L23.3125 11.0146L14.1779 15.5114Z" fill="white"/>
</svg>
